<?xml version="1.0" standalone="no"?>
<!DOCTYPE svg PUBLIC "-//W3C//DTD SVG 20010904//EN"
 "http://www.w3.org/TR/2001/REC-SVG-20010904/DTD/svg10.dtd">
<svg version="1.0" xmlns="http://www.w3.org/2000/svg"
 width="1000.000000pt" height="1000.000000pt" viewBox="0 0 1000.000000 1000.000000"
 preserveAspectRatio="xMidYMid meet">
<metadata>
Created by potrace 1.14, written by Peter Selinger 2001-2017
</metadata>
<g transform="translate(0.000000,1000.000000) scale(0.100000,-0.100000)"
fill="#000000" stroke="none">
<path d="M0 5000 l0 -5000 5000 0 5000 0 0 5000 0 5000 -5000 0 -5000 0 0
-5000z m3580 2155 c531 -90 897 -350 1110 -790 61 -125 123 -298 123 -343 0
-15 -11 -72 -26 -127 -14 -55 -42 -206 -61 -335 -51 -339 -44 -305 -67 -284
-11 10 -35 18 -53 18 l-33 0 40 51 c117 147 125 322 17 378 -66 34 -181 7
-252 -61 -16 -14 -28 -22 -28 -16 0 29 -42 260 -60 326 -108 410 -326 665
-675 791 -313 112 -774 111 -1130 -3 -274 -88 -463 -212 -691 -455 -65 -69
-129 -128 -141 -131 -68 -18 -70 77 -4 207 216 426 703 721 1302 788 125 14
515 6 629 -14z m3918 14 c429 -47 746 -221 885 -488 61 -116 79 -190 84 -346
4 -117 1 -157 -16 -243 -21 -102 -59 -208 -106 -301 l-24 -48 -77 -6 c-148
-11 -295 -118 -377 -274 -21 -40 -39 -73 -40 -73 -1 0 -2 48 -1 108 l0 107 42
65 c92 143 133 276 139 455 8 213 -35 335 -163 462 -136 135 -343 212 -636
235 -248 20 -538 -14 -753 -87 -266 -90 -531 -272 -710 -486 -117 -140 -148
-169 -184 -169 -49 0 -59 32 -36 117 90 335 321 588 705 772 239 114 466 172
800 204 85 9 379 6 468 -4z m-4505 -626 c15 -9 6 -31 -38 -99 -63 -96 -87
-181 -135 -474 -23 -140 -42 -255 -43 -256 -1 0 -26 -14 -56 -30 -120 -64
-239 -233 -282 -401 -21 -85 -25 -221 -8 -274 26 -77 98 -118 172 -98 22 6 40
9 42 7 1 -2 -30 -195 -68 -429 l-71 -426 -48 -12 c-89 -23 -158 -95 -158 -166
0 -39 56 -91 113 -106 40 -10 46 -14 42 -33 -2 -11 -14 -74 -25 -139 -26 -150
-55 -237 -101 -307 -27 -39 -34 -57 -25 -62 36 -20 212 -33 461 -33 226 0 284
3 355 19 176 38 325 102 470 199 86 58 239 202 312 294 45 57 52 62 76 56 15
-5 45 -7 67 -6 22 1 72 3 110 5 l70 3 0 48 c0 49 12 64 68 81 11 4 17 16 17
37 0 31 -1 32 -37 25 -21 -4 -59 -7 -85 -6 -46 1 -48 0 -48 -27 l0 -28 -19 31
c-11 18 -25 34 -32 36 -9 3 3 38 39 119 94 214 161 447 199 696 l17 113 35 6
c98 15 197 78 249 156 l27 42 6 -60 c3 -32 11 -69 18 -82 25 -47 80 -65 150
-48 l34 8 -7 -53 c-26 -194 -104 -489 -183 -687 l-47 -120 -61 -4 c-33 -3 -75
-13 -93 -22 -38 -20 -66 -69 -58 -102 7 -26 59 -64 89 -64 9 0 17 -4 17 -8 0
-19 -14 -20 -42 -6 -28 15 -31 14 -54 -7 -32 -30 -30 -35 11 -50 19 -7 35 -17
35 -22 0 -17 -114 -179 -191 -271 -283 -339 -651 -566 -1047 -645 -288 -58
-492 -56 -966 10 -179 25 -242 30 -350 27 -121 -4 -140 -7 -242 -43 -61 -21
-118 -36 -127 -32 -28 11 -21 75 15 148 21 42 52 83 91 119 178 164 235 228
270 301 39 81 68 181 87 302 7 42 16 77 21 77 4 0 9 28 11 63 3 56 5 62 26 65
24 4 23 5 26 -78 l1 -55 40 0 40 0 6 65 c9 90 -6 125 -60 140 -23 6 -46 8 -51
5 -6 -3 -10 -1 -10 6 0 7 39 242 86 523 l87 511 58 58 c137 138 211 389 179
602 -13 84 -39 162 -69 204 -18 25 -18 29 0 141 13 78 29 135 51 179 50 103
204 252 328 317 67 35 176 49 213 27z m3974 -5 c21 -17 16 -32 -34 -104 -54
-79 -84 -165 -108 -314 -10 -58 -19 -107 -21 -109 -2 -2 -9 1 -16 6 -19 15
-106 41 -163 47 -46 6 -186 -7 -226 -19 -15 -5 -15 0 -7 47 20 110 82 203 205
311 146 126 309 186 370 135z m-1726 -326 c-17 -33 -46 -50 -94 -57 -89 -13
-141 -68 -178 -184 -19 -64 -139 -794 -139 -852 0 -64 44 -44 89 40 35 66 51
77 51 35 0 -43 -40 -111 -96 -164 -43 -41 -60 -50 -88 -50 -71 0 -72 27 -6
465 54 359 82 489 125 580 52 109 102 148 236 184 96 26 113 26 100 3z m2229
4 c0 -23 -47 -54 -93 -61 -78 -13 -113 -39 -146 -107 -43 -88 -54 -137 -116
-536 -58 -372 -64 -432 -42 -432 19 0 61 48 86 98 24 46 41 55 41 19 0 -75
-122 -217 -186 -217 -42 0 -54 21 -54 93 0 66 92 675 119 791 38 158 106 272
186 310 33 16 167 54 193 55 6 1 12 -5 12 -13z m-2186 -243 c-12 -96 -34 -188
-56 -232 -22 -44 -69 -83 -83 -69 -4 3 2 44 14 90 11 46 23 118 27 161 7 85
15 95 76 96 27 1 28 0 22 -46z m-3068 -23 c129 -66 186 -180 187 -375 1 -183
-54 -335 -160 -447 -118 -123 -231 -156 -441 -126 -64 8 -91 8 -123 -1 -23 -7
-43 -10 -46 -8 -8 9 26 66 45 76 41 22 61 91 107 371 25 151 50 292 55 313 12
40 77 97 112 97 22 0 22 0 3 -36 -8 -17 -37 -169 -65 -339 -47 -289 -56 -329
-75 -378 -7 -18 -1 -19 101 -15 92 2 116 7 158 28 131 67 206 228 206 442 0
130 -12 192 -50 251 -95 150 -379 152 -524 3 -49 -51 -56 -54 -56 -28 0 25 47
93 85 124 81 67 153 88 301 85 105 -2 115 -4 180 -37z m4527 11 c70 -34 100
-79 105 -156 6 -98 -42 -187 -143 -264 -22 -16 -26 -24 -16 -28 8 -3 32 -22
53 -41 150 -136 99 -374 -98 -453 -62 -25 -61 -25 -369 -16 -27 1 -62 -2 -77
-7 -44 -13 -35 10 26 68 32 31 56 64 60 81 3 17 26 162 50 323 46 309 52 328
109 362 31 20 72 27 65 13 -2 -5 -9 -19 -16 -33 -6 -14 -20 -80 -30 -147 l-19
-123 69 0 c87 0 124 15 175 74 73 83 81 180 19 242 -42 42 -101 57 -206 52
-108 -5 -178 -36 -260 -114 -33 -32 -63 -55 -66 -51 -13 12 21 82 59 125 81
87 183 122 347 119 97 -2 122 -6 163 -26z m-2623 -23 c0 -32 -23 -135 -33
-149 -15 -20 -50 -39 -72 -39 -15 0 -16 7 -10 58 12 100 39 141 93 142 12 0
22 -5 22 -12z m2505 -112 c69 -29 70 -100 0 -172 -45 -47 -95 -61 -95 -26 0
60 41 212 57 212 2 0 19 -6 38 -14z m-3645 -165 c34 -10 33 -21 -23 -292 -26
-125 -47 -238 -47 -252 0 -58 41 -43 82 29 35 63 48 74 48 42 0 -41 -46 -122
-94 -166 -40 -37 -52 -43 -84 -40 -32 3 -38 7 -46 37 -9 30 0 113 20 201 4 17
-4 8 -26 -25 -112 -173 -239 -256 -296 -194 -16 18 -19 37 -18 133 0 99 4 120
31 193 65 173 189 303 318 334 38 9 103 9 135 0z m371 -13 c12 -22 7 -153 -7
-208 -4 -15 14 4 43 45 57 80 115 135 172 165 51 25 76 25 101 0 29 -29 26
-75 -20 -320 -22 -117 -40 -219 -40 -227 0 -23 29 -27 51 -7 12 11 33 42 48
69 l26 50 3 -33 c8 -75 -101 -202 -173 -202 -67 0 -70 51 -20 310 51 262 46
297 -32 255 -90 -49 -173 -214 -214 -428 -13 -69 -65 -137 -105 -137 -28 0
-28 1 -9 68 16 51 67 343 80 455 10 78 -11 77 -62 -3 -21 -33 -41 -60 -45 -60
-20 0 -4 53 31 106 71 109 145 153 172 102z m705 -3 c18 -28 20 -10 -37 -334
-22 -123 -38 -226 -35 -228 11 -11 37 8 65 49 17 24 37 52 46 63 15 19 16 18
11 -19 -11 -80 -116 -196 -176 -196 -62 0 -63 25 -10 315 44 240 46 265 27
265 -17 0 -60 -47 -81 -87 -17 -33 -36 -44 -36 -20 0 29 51 118 90 157 64 64
109 76 136 35z m544 15 c46 -25 45 -121 -2 -213 -32 -64 -118 -141 -204 -183
l-76 -38 6 -40 c12 -78 63 -111 142 -92 32 8 82 52 111 99 17 28 28 36 35 29
18 -18 -19 -98 -71 -151 -62 -63 -116 -91 -180 -91 -156 0 -187 205 -69 450
79 164 226 274 308 230z m1015 -4 c31 -13 35 -19 35 -53 0 -21 -7 -46 -15 -57
-14 -18 -15 -17 -40 12 -58 69 -175 43 -175 -37 0 -11 30 -64 66 -118 37 -54
73 -112 80 -130 21 -49 17 -103 -11 -160 -42 -84 -123 -133 -219 -133 -46 0
-59 4 -85 29 -38 35 -40 71 -8 118 25 38 43 42 52 13 12 -38 56 -79 90 -86 68
-13 114 38 101 111 -4 18 -36 79 -73 135 -52 80 -67 111 -71 149 -6 68 12 114
63 159 68 59 142 76 210 48z m2084 -2 c117 -83 56 -401 -112 -580 -65 -71
-107 -94 -167 -94 -56 0 -78 14 -101 63 -40 90 -19 241 54 381 92 178 245 286
326 230z m634 5 c30 -8 37 -14 32 -27 -35 -91 -87 -338 -120 -577 -43 -317
-74 -396 -202 -516 -157 -149 -313 -156 -383 -18 -23 44 -27 133 -8 174 10 22
53 55 71 55 2 0 7 -30 10 -66 4 -37 15 -83 25 -103 33 -64 113 -88 190 -56 99
42 130 112 183 415 17 96 37 197 45 224 8 27 14 51 14 53 0 3 -27 -32 -60 -76
-85 -113 -149 -161 -214 -161 -51 0 -70 40 -70 145 1 100 24 188 75 285 101
194 262 291 412 249z m-3822 -438 c-28 -39 -60 -61 -88 -61 -36 0 -27 25 15
44 20 9 48 25 62 36 33 25 37 18 11 -19z m3269 -10 c0 -10 -7 -21 -15 -24 -12
-5 -12 -2 -3 18 13 30 18 31 18 6z m-890 -88 c-28 -228 129 -292 289 -117 28
31 53 55 55 53 1 -2 8 -19 16 -37 31 -79 85 -115 170 -115 91 0 169 49 260
161 33 42 36 43 62 31 20 -9 29 -22 34 -48 19 -104 90 -161 176 -142 29 7 39
4 63 -17 l29 -24 -12 -70 c-15 -87 -47 -163 -79 -188 -32 -25 -85 -35 -111
-21 -22 12 -42 78 -42 139 0 43 -26 78 -64 88 -38 9 -113 -29 -137 -70 l-20
-35 -45 35 c-55 41 -164 106 -218 128 -33 14 -87 16 -357 16 -176 0 -319 -1
-320 -2 0 -2 -30 -208 -67 -458 l-67 -455 -59 -5 -60 -5 2 -70 1 -70 -43 87
c-24 48 -48 100 -54 117 -10 29 -14 31 -61 31 -48 0 -50 -1 -62 -37 -6 -21
-33 -84 -60 -140 -26 -56 -44 -104 -41 -107 3 -3 25 -6 48 -6 34 0 44 4 49 20
5 17 15 20 70 20 54 0 63 -3 68 -20 5 -18 14 -20 87 -20 l83 0 -7 -61 c-18
-160 -78 -321 -150 -408 -20 -24 -36 -46 -36 -51 0 -20 264 -49 510 -56 421
-12 677 34 863 155 122 80 198 187 243 341 21 74 22 75 57 78 l36 3 3 62 c3
59 4 62 28 62 24 0 25 -2 25 -65 l0 -65 40 0 c36 0 40 3 43 28 3 25 22 40 22
16 0 -16 70 -41 102 -37 15 3 28 0 28 -5 0 -5 -22 -7 -50 -5 -46 5 -51 3 -56
-19 -11 -42 12 -56 79 -48 58 6 59 6 52 -17 -4 -13 -24 -60 -45 -105 -192
-413 -640 -687 -1215 -744 -218 -21 -424 -7 -960 66 -198 27 -281 18 -417 -41
-113 -50 -148 -46 -148 17 0 78 60 155 215 272 162 123 233 219 265 354 6 28
58 360 114 738 73 491 107 689 117 696 8 6 32 7 54 4 261 -35 410 -3 521 111
29 29 60 73 69 99 10 25 19 44 20 43 1 -2 -1 -31 -5 -65z m1376 -577 c24 -52
53 -128 63 -169 25 -96 43 -254 39 -337 l-3 -65 -82 -5 c-65 -4 -88 -10 -114
-29 -29 -22 -32 -22 -41 -6 -17 29 -66 43 -134 37 l-62 -5 -7 59 c-10 91 -33
205 -54 267 l-20 57 27 6 c97 23 268 157 317 248 11 20 21 36 23 36 2 0 23
-42 48 -94z m-6399 -526 c43 -26 64 -61 65 -108 1 -68 -42 -112 -125 -127 -48
-9 -119 16 -147 52 -25 32 -27 108 -4 142 43 60 146 81 211 41z m754 -9 c11
-13 19 -36 19 -52 0 -26 -3 -29 -33 -29 -30 0 -32 3 -32 32 0 29 -4 33 -37 41
-73 17 -166 -51 -156 -115 2 -12 16 -30 31 -42 23 -17 41 -21 95 -19 37 1 76
4 87 5 28 4 31 -28 3 -36 -51 -13 -173 -6 -215 14 -75 33 -83 107 -19 169 46
45 98 62 175 58 52 -3 67 -7 82 -26z m2054 6 c18 -15 27 -33 28 -57 2 -31 -1
-35 -22 -35 -20 0 -24 5 -26 29 -1 40 -31 59 -83 52 -59 -8 -82 -22 -82 -51 0
-26 17 -34 132 -55 98 -19 122 -57 62 -96 -35 -24 -141 -23 -213 1 -46 15 -51
19 -39 31 12 13 20 12 53 -2 47 -19 149 -24 166 -7 22 22 -8 40 -85 52 -41 6
-86 16 -100 23 -54 24 -38 95 27 123 18 8 60 14 94 15 50 0 67 -4 88 -23z
m1631 -62 c20 -44 44 -99 54 -122 l19 -43 -29 0 c-20 0 -31 6 -35 20 -6 18
-15 20 -82 20 -66 0 -75 -2 -80 -20 -4 -14 -14 -20 -34 -20 -16 0 -29 2 -29 4
0 2 22 52 50 112 27 60 50 115 50 122 0 9 12 12 40 10 40 -3 41 -4 76 -83z
m544 13 c0 -40 3 -96 6 -124 l7 -52 -86 0 c-79 -1 -89 1 -117 24 -38 33 -40
71 -4 105 21 20 36 24 86 24 l60 0 -4 48 c-3 45 -2 47 25 47 27 0 27 0 27 -72z
m189 35 c6 -21 24 -65 40 -98 l28 -60 23 50 c29 65 36 111 20 130 -11 13 -8
15 23 15 l35 0 26 -82 c14 -46 30 -89 34 -96 6 -9 20 12 45 67 21 44 37 87 37
96 0 11 10 15 36 15 20 0 34 -3 32 -7 -36 -70 -108 -226 -108 -234 0 -6 -16
-9 -37 -7 -35 3 -37 5 -59 68 -24 72 -25 72 -55 -28 -11 -38 -15 -42 -46 -42
-32 0 -35 3 -65 73 -18 39 -45 96 -60 125 l-27 52 33 0 c29 0 34 -4 45 -37z
m-2004 7 c0 -9 -11 -16 -27 -18 -23 -3 -28 1 -28 18 0 17 5 21 28 18 16 -2 27
-9 27 -18z m2580 0 c0 -18 -33 -26 -47 -12 -6 6 -7 15 -3 22 10 16 50 8 50
-10z m260 0 c0 -18 -33 -26 -47 -12 -6 6 -7 15 -3 22 10 16 50 8 50 -10z
m-4017 -27 c-3 -34 -1 -38 20 -35 17 3 22 -2 22 -17 0 -16 -6 -21 -26 -21 -23
0 -25 -3 -22 -42 2 -36 7 -44 26 -46 37 -5 27 -32 -12 -32 -47 0 -66 22 -66
76 0 40 -2 44 -25 44 -35 0 -33 28 3 32 24 3 27 7 27 41 0 34 2 37 28 37 26 0
28 -2 25 -37z m3882 -2 c0 -34 3 -38 20 -34 15 4 20 0 20 -16 0 -16 -6 -21
-26 -21 -23 0 -25 -3 -22 -42 2 -36 7 -44 26 -46 13 -2 22 -10 22 -21 0 -14
-7 -16 -35 -13 -43 5 -65 33 -65 84 0 34 -3 38 -25 38 -18 0 -23 4 -19 15 4 8
17 15 30 15 21 0 24 4 24 40 0 36 3 40 25 40 22 0 25 -4 25 -39z m-5260 -70
l-12 -70 -31 12 c-36 15 -48 56 -25 84 16 19 70 54 76 48 2 -2 -1 -35 -8 -74z
m2095 49 c-9 -16 -20 -30 -26 -30 -20 0 -49 21 -43 31 7 13 43 28 67 28 16 1
16 -1 2 -29z m-2430 -25 c26 -25 30 -50 19 -117 -6 -32 -11 -38 -30 -38 -23 0
-24 3 -24 65 0 73 -11 86 -59 69 -23 -8 -26 -15 -29 -67 -3 -53 -5 -57 -27
-57 -24 0 -25 2 -25 81 l0 82 33 -6 c19 -3 40 -1 48 4 26 17 69 10 94 -16z
m1317 9 c49 -25 51 -94 5 -128 -21 -15 -43 -21 -83 -21 l-54 0 0 -47 c0 -46
-1 -48 -28 -48 l-27 0 6 103 c4 56 5 114 2 128 l-5 27 78 0 c49 0 90 -6 106
-14z m128 -49 c0 -73 11 -86 59 -69 23 8 26 15 29 67 3 55 4 57 30 57 l27 0
-3 -81 -4 -81 -31 5 c-18 2 -40 0 -51 -5 -28 -15 -84 0 -102 27 -12 18 -14 37
-8 84 6 56 9 61 30 61 23 0 24 -3 24 -65z m509 39 c12 -15 21 -40 21 -55 l0
-29 -76 0 c-65 0 -75 -2 -65 -14 17 -21 60 -28 98 -17 22 6 35 6 39 -1 19 -31
-80 -49 -139 -25 -45 19 -61 53 -45 98 23 66 128 93 167 43z m825 13 c26 -19
18 -61 -13 -65 -18 -3 -22 0 -18 11 8 22 -18 40 -47 33 -34 -8 -56 -33 -56
-61 0 -33 32 -48 85 -40 28 4 46 2 50 -6 20 -31 -88 -40 -145 -11 -86 43 -22
150 91 152 19 0 43 -6 53 -13z m306 -5 c14 -11 22 -30 23 -52 l2 -35 -72 -3
c-40 -2 -73 -7 -73 -13 0 -17 52 -30 95 -23 26 3 45 2 49 -4 9 -15 -8 -23 -67
-29 -44 -4 -58 -1 -87 19 -51 34 -53 77 -7 123 28 28 43 35 75 35 23 0 49 -7
62 -18z m246 -4 c15 -15 18 -32 16 -105 -2 -51 -3 -53 -29 -53 -28 0 -28 1
-25 55 4 61 -8 85 -42 85 -34 0 -46 -20 -46 -77 0 -51 -1 -53 -27 -53 l-28 0
3 81 4 81 32 -5 c18 -3 39 -1 47 4 18 12 79 4 95 -13z m238 3 c24 -26 13 -61
-19 -61 -18 0 -23 4 -18 16 7 18 -12 34 -40 34 -22 0 -67 -43 -67 -64 0 -33
31 -49 87 -42 42 5 53 3 53 -8 0 -18 -22 -26 -70 -26 -52 0 -86 14 -105 44
-14 21 -15 29 -3 53 31 65 143 98 182 54z m206 -1 c12 -12 20 -33 20 -55 l0
-35 -70 0 c-73 0 -91 -13 -43 -31 18 -7 40 -7 65 -1 39 10 48 7 48 -14 0 -16
-77 -28 -118 -19 -61 13 -90 72 -62 125 26 48 124 66 160 30z m666 -1 c10 -8
14 -34 14 -85 l0 -74 -28 0 c-29 0 -29 0 -24 55 5 61 -7 85 -42 85 -34 0 -46
-20 -46 -77 0 -53 0 -53 -31 -53 -24 0 -30 3 -25 16 3 9 6 44 6 80 l0 64 40
-2 c22 -1 43 2 48 6 9 10 70 0 88 -15z m1508 0 c24 -19 26 -27 26 -90 l0 -69
-30 0 -31 0 3 58 c2 66 -4 82 -34 82 -38 0 -58 -28 -58 -82 0 -45 -2 -48 -25
-48 -25 0 -25 1 -25 80 l0 81 40 -3 c22 -1 43 1 46 5 14 14 62 6 88 -14z m266
-73 c0 -84 -3 -98 -23 -121 -18 -22 -34 -27 -85 -32 -58 -5 -62 -4 -62 15 0
18 5 19 39 15 31 -4 43 -1 60 16 28 28 29 56 2 41 -60 -32 -141 6 -141 65 0
57 52 92 125 83 19 -2 35 0 35 4 0 4 11 8 25 8 25 0 25 0 25 -94z m-5495 54
c35 -33 31 -85 -8 -114 -43 -32 -136 -30 -171 3 -26 24 -35 73 -18 97 35 51
149 59 197 14z m222 19 c8 -7 18 -7 32 0 11 6 35 11 55 11 48 0 66 -28 66
-102 0 -57 0 -58 -28 -58 -28 0 -29 0 -24 53 5 64 -13 87 -53 69 -22 -10 -25
-18 -25 -67 0 -53 -1 -55 -27 -55 -27 0 -28 1 -25 53 4 65 -13 87 -53 69 -23
-10 -25 -17 -25 -72 0 -59 -1 -60 -27 -60 l-28 0 0 84 0 84 75 0 c41 0 80 -4
87 -9z m1116 -7 c-4 -15 -1 -15 33 3 16 8 35 15 42 15 21 0 13 -28 -10 -35
-13 -4 -33 -17 -46 -28 -19 -18 -22 -28 -17 -59 6 -36 5 -38 -19 -38 -26 0
-26 1 -26 81 0 78 1 80 23 77 12 -2 21 -9 20 -16z m827 -67 l0 -85 -31 0 c-24
0 -30 3 -25 16 3 9 6 47 6 85 0 67 1 69 25 69 25 0 25 -1 25 -85z m2420 70 c0
-14 3 -14 30 0 16 8 36 15 45 15 24 0 18 -27 -8 -34 -41 -10 -67 -43 -67 -86
0 -36 -3 -40 -24 -40 -24 0 -24 1 -21 78 2 42 4 78 4 80 4 10 41 -1 41 -13z
m160 -70 c0 -84 0 -85 -25 -85 -25 0 -25 1 -25 85 0 84 0 85 25 85 25 0 25 -1
25 -85z m266 69 c-3 -9 -6 -47 -6 -85 0 -67 -1 -69 -25 -69 -25 0 -25 0 -23
85 l3 85 29 0 c22 0 27 -4 22 -16z m-1389 -81 c-3 -10 -5 -4 -5 12 0 17 2 24
5 18 2 -7 2 -21 0 -30z m-2350 -25 c-3 -8 -6 -5 -6 6 -1 11 2 17 5 13 3 -3 4
-12 1 -19z"/>
<path d="M6430 5458 c0 -50 -51 -323 -63 -342 -9 -13 -13 -26 -10 -30 4 -3 59
-6 123 -6 100 0 122 3 160 23 67 34 85 65 85 145 -1 96 -39 163 -117 203 -44
23 -178 28 -178 7z m158 -78 c43 -26 76 -99 68 -148 -9 -59 -35 -76 -121 -80
-51 -3 -75 -1 -75 7 0 19 30 215 35 229 7 18 56 14 93 -8z"/>
<path d="M2761 5573 c-69 -34 -138 -177 -163 -340 -15 -96 -4 -139 37 -136 79
6 221 242 260 431 6 30 4 33 -29 47 -45 19 -63 19 -105 -2z m-46 -241 c-8 -45
-21 -92 -30 -104 l-15 -22 0 26 c0 29 49 192 56 186 2 -3 -3 -41 -11 -86z"/>
<path d="M4433 5538 c-36 -37 -77 -121 -91 -185 l-10 -43 35 0 c42 0 79 19
120 62 38 39 53 76 53 128 0 57 -8 70 -44 70 -23 0 -41 -9 -63 -32z"/>
<path d="M7505 5543 c-75 -74 -125 -285 -94 -396 32 -116 136 -98 199 36 55
116 63 314 14 368 -27 29 -85 25 -119 -8z m61 -276 c-16 -56 -54 -120 -71
-121 -14 -1 -29 77 -21 116 5 26 16 39 54 60 56 32 61 25 38 -55z"/>
<path d="M8125 5576 c-40 -17 -82 -68 -112 -132 -55 -121 -82 -316 -48 -344
65 -54 236 196 273 398 8 43 7 54 -8 67 -24 22 -71 27 -105 11z m25 -69 c0 -2
-10 -12 -22 -23 l-23 -19 19 23 c18 21 26 27 26 19z"/>
<path d="M1736 3989 c-38 -30 -49 -64 -36 -105 22 -65 99 -86 145 -40 33 33
39 66 21 110 -23 56 -83 72 -130 35z"/>
<path d="M6213 3945 c-11 -22 -24 -50 -27 -62 -7 -22 -5 -23 48 -23 31 0 56 3
56 8 -1 4 -14 32 -29 62 l-28 54 -20 -39z m47 -57 c0 -5 -14 -8 -30 -8 l-31 0
17 32 16 32 14 -25 c7 -13 13 -27 14 -31z"/>
<path d="M6702 3904 c-27 -18 -28 -45 -4 -67 25 -23 68 -21 92 3 24 24 24 29
4 58 -18 26 -59 29 -92 6z"/>
<path d="M3349 3909 c-27 -27 -21 -61 14 -77 40 -20 81 2 85 46 3 27 -1 34
-23 42 -38 15 -53 12 -76 -11z"/>
<path d="M3988 3908 l-23 -23 49 -3 c55 -4 65 2 50 26 -17 26 -50 26 -76 0z"/>
<path d="M5132 3914 c-34 -24 -26 -34 28 -34 54 0 55 1 40 31 -13 23 -38 24
-68 3z"/>
<path d="M5810 3905 l-23 -25 52 0 c49 0 52 2 49 23 -5 33 -47 35 -78 2z"/>
<path d="M8210 3902 c-31 -25 -21 -69 17 -78 56 -14 105 43 68 80 -22 21 -57
20 -85 -2z m78 -26 c5 -22 -13 -36 -46 -36 -25 0 -38 21 -28 46 9 23 70 15 74
-10z"/>
<path d="M2740 3907 c-28 -14 -38 -51 -20 -73 14 -16 73 -19 101 -4 21 12 26
52 7 67 -23 18 -63 22 -88 10z"/>
</g>
</svg>
